# xmcd CD database file
#
# Track frame offsets:
#	150
#	18436
#	34187
#	43626
#
# Disc length: 808 seconds
#
# Revision: 2
# Processed by: cddbd v1.5.2PL0 Copyright (c) Steve Scherf et al.
# Submitted via: CDex 1.70beta3
#
DISCID=29032604
DTITLE=左とん平 - とん平のヘイ・ユウ・ブルース
DYEAR=1973
DGENRE=Blues
TTITLE0=とん平のヘイ・ユウ・ブルース
TTITLE1=東京っていい街だば
TTITLE2=とん平の酒びたり人生
TTITLE3=続・東京っていい街だな
EXTD=YEAR: 1973
EXTT0=
EXTT1=
EXTT2=
EXTT3=
PLAYORDER=
